<?xml version="1.0" encoding="UTF-8"?>
<svg width="96px" height="49px" viewBox="0 0 96 49" version="1.1" xmlns="http://www.w3.org/2000/svg" xmlns:xlink="http://www.w3.org/1999/xlink">
    <!-- Generator: sketchtool 57.1 (101010) - https://sketch.com -->
    <title>775B3A8C-7AD3-4A1E-9DC8-6BA59D27A853</title>
    <desc>Created with sketchtool.</desc>
    <g id="Page---Home" stroke="none" stroke-width="1" fill="none" fill-rule="evenodd">
        <g id="Home---1024---C" transform="translate(-16.000000, -9.000000)" fill-rule="nonzero">
            <g id="header-header/1024-(expanded)">
                <g id="header-header/1024">
                    <g id="1024">
                        <g id="logo-atom/header/logo/1024">
                            <g id="logo-logo/fox-business-2-color" transform="translate(16.000000, 9.851528)">
                                <path d="M95.5189333,37 L95.5189333,39.571241 L86.702638,39.571241 L86.6232625,39.5769372 C86.3448731,39.6187304 86.2056784,39.890731 86.2056784,40.4005253 L86.2056784,40.4005253 L86.2097864,40.541879 C86.2371763,40.990596 86.4015615,41.2147078 86.7038605,41.2147078 L86.7038605,41.2147078 L93.120324,41.2147078 L93.3289455,41.2218339 C94.0827884,41.274089 94.7145577,41.613701 95.2261367,42.2396586 L95.2261367,42.2396586 L95.3604436,42.4215152 C95.7868145,43.0387773 96,43.766788 96,44.6060407 L96,44.6060407 L95.9936044,44.8550007 C95.9509673,45.6736921 95.6951448,46.3806482 95.2261367,46.9763624 L95.2261367,46.9763624 L95.0836338,47.1396762 C94.5501865,47.7125511 93.8963776,48 93.120324,48 L93.120324,48 L84.3028061,48 L84.3028061,45.428759 L93.1154338,45.428759 L93.201379,45.4219992 C93.4742674,45.3769203 93.6111709,45.1062496 93.6111709,44.6060407 L93.6111709,44.6060407 L93.6070647,44.4631868 C93.5796932,44.0098327 93.4155101,43.7846356 93.1154338,43.7846356 L93.1154338,43.7846356 L86.7038605,43.7846356 L86.4950996,43.77747 C85.7407976,43.7249307 85.1091684,43.3835631 84.5992703,42.7564018 L84.5992703,42.7564018 L84.4612012,42.577291 C84.0230734,41.9687654 83.8058465,41.2451501 83.8058465,40.4005253 L83.8058465,40.4005253 L83.8125314,40.1513542 C83.857102,39.3312568 84.1245942,38.6158897 84.6163858,38.0052528 L84.6163858,38.0052528 L84.7558196,37.8442318 C85.2785274,37.2797248 85.9272466,37 86.7038605,37 L86.7038605,37 L95.5189333,37 Z M82.0667936,37 L82.0667936,39.571241 L73.252332,39.571241 L73.173085,39.5769372 C72.8950808,39.6187304 72.7553725,39.890731 72.7553725,40.4005253 L72.7553725,40.4005253 L72.7594933,40.541879 C72.7869613,40.990596 72.9517001,41.2147078 73.252332,41.2147078 L73.252332,41.2147078 L79.667573,41.2147078 L79.8765918,41.2218339 C80.6316759,41.274089 81.2624179,41.613701 81.773997,42.2396586 L81.773997,42.2396586 L81.9082088,42.4215152 C82.3344879,43.0387773 82.549694,43.766788 82.549694,44.6060407 L82.549694,44.6060407 L82.543242,44.8550007 C82.5002421,45.6736921 82.2424493,46.3806482 81.773997,46.9763624 L81.773997,46.9763624 L81.6320314,47.1396762 C81.1002923,47.7125511 80.4454095,48 79.6687955,48 L79.6687955,48 L70.8506663,48 L70.8506663,45.428759 L79.6645166,45.428759 L79.7509986,45.4219992 C80.0252648,45.3769203 80.1596424,45.1062496 80.1596424,44.6060407 L80.1596424,44.6060407 L80.1556056,44.4631868 C80.1286749,44.0098327 79.9668156,43.7846356 79.6645166,43.7846356 L79.6645166,43.7846356 L73.252332,43.7846356 L73.0436999,43.77747 C72.289787,43.7249307 71.6576908,43.3835631 71.1483531,42.7564018 L71.1483531,42.7564018 L71.0101747,42.577291 C70.5718632,41.9687654 70.3561518,41.2451501 70.3561518,40.4005253 L70.3561518,40.4005253 L70.3627674,40.1513542 C70.406897,39.3312568 70.6720654,38.6158897 71.1660798,38.0052528 L71.1660798,38.0052528 L71.3049876,37.8442318 C71.826065,37.2797248 72.4762784,37 73.252332,37 L73.252332,37 L82.0667936,37 Z M68.8249295,37 L68.8249295,39.571241 L60.311211,39.571241 L60.311211,41.2147078 L68.2686771,41.2147078 L68.2686771,43.7846356 L60.311211,43.7846356 L60.311211,45.428759 L68.8035352,45.428759 L68.8035352,48 L57.9236044,48 L57.9236044,37 L68.8249295,37 Z M47.8774411,37 L54.0139445,44.358503 L54.0170008,37 L56.4021624,37 L56.4021624,48 L54.0170008,48 L47.8823312,40.5968483 L47.8823312,48 L45.4959472,48 L45.4959472,37 L47.8774411,37 Z M43.9732826,37 L43.9732826,48 L41.585676,48 L41.585676,37 L43.9732826,37 Z M39.8478456,37 L39.8478456,39.571241 L31.0303277,39.571241 L30.9511047,39.5769372 C30.6732717,39.6187304 30.5345907,39.890731 30.5345907,40.4005253 L30.5345907,40.4005253 L30.5386845,40.541879 C30.5659825,40.990596 30.7298625,41.2147078 31.0321615,41.2147078 L31.0321615,41.2147078 L37.4492362,41.2147078 L37.6576006,41.2218339 C38.4106691,41.274089 39.043419,41.613701 39.5544377,42.2396586 L39.5544377,42.2396586 L39.6887161,42.4215152 C40.1149033,43.0387773 40.3270785,43.766788 40.3270785,44.6060407 L40.3270785,44.6060407 L40.3207114,44.8550007 C40.278258,45.6736921 40.0234458,46.3806482 39.5544377,46.9763624 L39.5544377,46.9763624 L39.4120519,47.1396762 C38.8789119,47.7125511 38.2241692,48 37.4492362,48 L37.4492362,48 L28.6298846,48 L28.6298846,45.428759 L37.4449574,45.428759 L37.5314536,45.4219992 C37.8058117,45.3769203 37.9406944,45.1062496 37.9406944,44.6060407 L37.9406944,44.6060407 L37.9366433,44.4631868 C37.9096209,44.0098327 37.7472564,43.7846356 37.4449574,43.7846356 L37.4449574,43.7846356 L31.0321615,43.7846356 L30.8232368,43.77747 C30.0683005,43.7249307 29.4357374,43.3835631 28.92696,42.7564018 L28.92696,42.7564018 L28.7891381,42.577291 C28.3515613,41.9687654 28.1323137,41.2451501 28.1323137,40.4005253 L28.1323137,40.4005253 L28.1390978,40.1513542 C28.1843067,39.3312568 28.4552846,38.6158897 28.9465206,38.0052528 L28.9465206,38.0052528 L29.0856498,37.8442318 C29.6072486,37.2797248 30.2549872,37 31.0321615,37 L31.0321615,37 L39.8478456,37 Z M16.4430663,37 L16.4430663,44.5961917 L16.4466571,44.7298149 C16.4729886,45.1981378 16.644122,45.428759 16.9595864,45.428759 L16.9595864,45.428759 L23.700021,45.428759 L23.7800626,45.4230358 C24.0605493,45.3810462 24.1982031,45.1077916 24.1982031,44.5961917 L24.1982031,44.5961917 L24.1982031,37 L26.598035,37 L26.598035,44.5961917 L26.5913336,44.8456455 C26.5466482,45.6669959 26.2783983,46.3863786 25.7838282,46.993434 L25.7838282,46.993434 L25.6453887,47.154067 C25.1260546,47.7175166 24.4777556,48 23.700021,48 L23.700021,48 L16.9546962,48 L16.7428136,47.9929974 C15.9784996,47.9416493 15.352567,47.6079558 14.8617201,46.993434 L14.8617201,46.993434 L14.7214944,46.8079579 C14.2767533,46.1785406 14.058516,45.437832 14.058516,44.5961917 L14.058516,44.5961917 L14.058516,37 L16.4430663,37 Z M9.72891608,37 L9.95001588,37.0065003 C10.746611,37.0541785 11.3880459,37.3642482 11.8738499,37.9402495 L11.8738499,37.9402495 L12.0095688,38.1146947 C12.3953213,38.6496126 12.5884203,39.2887722 12.5884203,40.0321733 L12.5884203,40.0321733 L12.582222,40.2647097 C12.5326251,41.1788746 12.1852666,41.9010556 11.5358196,42.4235062 L11.5358196,42.4235062 L11.6969159,42.5382451 C12.4228649,43.091918 12.7870819,43.900766 12.7870819,44.9658569 L12.7870819,44.9658569 L12.7797284,45.209587 C12.7356072,45.9297111 12.4929405,46.5499015 12.0517284,47.0610637 L12.0517284,47.0610637 L11.9157878,47.2107108 C11.4030219,47.7357235 10.7328702,48 9.90862841,48 L9.90862841,48 L0,48 L0,37 L9.72891608,37 Z M9.91229601,43.7846356 L2.38699531,43.7846356 L2.38699531,45.428759 L9.91229601,45.428759 L9.99450815,45.4230791 C10.2830418,45.3814155 10.4294274,45.110418 10.4294274,44.6060407 L10.4294274,44.6060407 L10.4251122,44.4636308 C10.3963584,44.0114606 10.2240419,43.7846356 9.91229601,43.7846356 L9.91229601,43.7846356 Z M9.72891608,39.571241 L2.38699531,39.571241 L2.38699531,41.2435982 L9.72891608,41.2435982 L9.81096374,41.23781 C10.0988554,41.1953564 10.2442137,40.9192931 10.2442137,40.4070913 L10.2442137,40.4070913 L10.2406119,40.2732656 C10.2142064,39.8040691 10.0426995,39.571241 9.72891608,39.571241 L9.72891608,39.571241 Z M92,0 L96,35 L91.6923077,35 L82,0 L92,0 Z M80,5 L90.4615385,35 L84,35 L73,15.9942981 L80,5 Z M61,0 L65,8 L69,0 L80,0 L70,15.9942981 L80,32 L70,32 L65,24 L61,32 L50,32 L59,15.9942981 L50,0 L61,0 Z M37.5384615,0 C47.0531904,0 54.7692308,7.11684418 54.7692308,16.2077922 C54.7692308,24.677872 47.0531904,31.7922078 37.5384615,31.7922078 C28.0218665,31.7922078 20.3076923,24.677872 20.3076923,16.2077922 C20.3076923,7.11684418 28.0218665,0 37.5384615,0 Z M20.5,0 L21,9 L9,9 L9,12 L19,12 L19,21 L9,21 L9,31 L0,31 L0,0 L20.5,0 Z M37.5,7 C36.1745166,7 35.0899613,8.03153594 35.0053177,9.33562431 L35,9.5 L35,22.5 C35,23.8807119 36.1192881,25 37.5,25 C38.8254834,25 39.9100387,23.9684641 39.9946823,22.6643757 L40,22.5 L40,9.5 C40,8.11928813 38.8807119,7 37.5,7 Z" id="fox-business" fill="#003366"></path>
                                <polygon id="divider" fill="#C20017" points="0 33 0 35 82 35 81 33"></polygon>
                            </g>
                        </g>
                    </g>
                </g>
            </g>
        </g>
    </g>
</svg>