<?xml version="1.0" encoding="UTF-8"?>
<svg width="159px" height="16px" viewBox="0 0 159 16" version="1.1" xmlns="http://www.w3.org/2000/svg" xmlns:xlink="http://www.w3.org/1999/xlink">
    <!-- Generator: sketchtool 57.1 (101010) - https://sketch.com -->
    <title>A539AE24-CA31-4249-8C21-0A4F281B4D51</title>
    <desc>Created with sketchtool.</desc>
    <g id="Page---Home" stroke="none" stroke-width="1" fill="none" fill-rule="evenodd">
        <g id="Home---320---A" transform="translate(-16.000000, -18.000000)" fill-rule="nonzero">
            <g id="header-header/320">
                <g id="logo-atom/header/logo/320">
                    <g id="fox-business-mobile-logo/fox-business-mobile-2-color" transform="translate(16.000000, 18.000000)">
                        <path d="M4.2273579,3.94753279 L9.48407245,3.94753279 L9.43410369,0.119925047 L0,0.119925047 L0,14.2211118 L4.17738913,14.2211118 L4.17738913,9.80387258 L8.72454716,9.80387258 L8.72454716,5.80637102 L4.2273579,5.80637102 L4.2273579,3.94753279 Z M32.0499688,6.82573392 L36.467208,0.0499687695 L31.3703935,0.0499687695 L29.7613991,3.04809494 L27.9225484,0.0499687695 L22.9256715,0.0499687695 L27.1730169,6.74578389 L22.5559026,14.1911305 L27.5527795,14.1911305 L29.6114928,11.0630856 L31.6901936,14.1911305 L36.7870081,14.1911305 L32.0499688,6.82573392 Z M24.974391,7.14553404 C24.974391,3.19800125 21.4765771,0 17.1692692,0 C12.8619613,0 9.35415365,3.19800125 9.35415365,7.14553404 C9.35415365,11.0930668 12.8519675,14.2910681 17.1692692,14.2910681 C21.4865709,14.2910681 24.974391,11.0930668 24.974391,7.14553404 L24.974391,7.14553404 Z M18.5284368,3.95752655 L18.5284368,9.95377889 C18.5284368,10.6333542 18.438476,11.1930044 17.1692692,11.1930044 C15.9000625,11.1930044 15.8900687,10.4834478 15.8900687,10.4834478 L15.8900687,3.94753279 C15.8900687,3.94753279 15.8900687,2.9481574 17.219238,2.9481574 C18.5484072,2.9481574 18.5284368,3.95752655 18.5284368,3.95752655 L18.5284368,3.95752655 Z M74.5833854,9.87382886 C74.5833854,10.5933791 74.3935041,10.9531543 74.0037477,10.9531543 L66.0787008,10.9531543 C65.6789507,10.9531543 65.4790756,10.5933791 65.4790756,9.87382886 L65.4790756,0.099937539 L62.6708307,0.099937539 L62.6708307,9.87382886 C62.6366245,10.9799162 62.9705548,12.0660685 63.6202374,12.9618988 C64.1661917,13.7840601 65.0918534,14.2732309 66.0787008,14.2610868 L74.0037477,14.2610868 C74.9861722,14.2661918 75.9056867,13.7782862 76.4522174,12.9618988 C77.1162874,12.0706663 77.467588,10.9851473 77.4515928,9.87382886 L77.4515928,0.099937539 L74.6233604,0.099937539 L74.5833854,9.87382886 Z M90.1636477,5.52654591 L82.6183635,5.52654591 C82.2286071,5.52654591 82.0387258,5.17676452 82.0387258,4.52717052 C82.0387258,3.87757651 82.2286071,3.45783885 82.6183635,3.45783885 L92.9818863,3.45783885 L92.9818863,0.149779181 L82.6183635,0.149779181 C81.6373933,0.140764879 80.7174714,0.62513193 80.1698938,1.43910056 C79.5071644,2.33102481 79.1560148,3.416077 79.1705184,4.52717052 C79.141318,5.60323637 79.4719033,6.65829577 80.1099313,7.52529669 C80.6621614,8.3494709 81.5863366,8.84710367 82.5783885,8.85446596 L90.113679,8.85446596 C90.5034354,8.85446596 90.6933167,9.20424735 90.6933167,9.91380387 C90.6933167,10.6233604 90.5034354,10.9731418 90.113679,10.9731418 L79.8001249,10.9731418 L79.8001249,14.2810743 L90.1636477,14.2810743 C91.1538232,14.2759567 92.0776125,13.7822718 92.6321049,12.9618988 C93.8437083,11.110438 93.8437083,8.71716975 92.6321049,6.86570893 C92.0821478,6.03773086 91.1575835,5.53614535 90.1636477,5.52654591 L90.1636477,5.52654591 Z M95.0206121,14.2610868 L97.828857,14.2610868 L97.828857,0.099937539 L95.0206121,0.099937539 L95.0206121,14.2610868 Z M109.621487,9.57401624 L102.425984,0.099937539 L99.6277327,0.099937539 L99.6277327,14.2610868 L102.425984,14.2610868 L102.425984,4.7470331 L109.63148,14.2810743 L112.419738,14.2810743 L112.419738,0.099937539 L109.621487,0.099937539 L109.621487,9.57401624 Z M114.218613,14.2610868 L127.010618,14.2610868 L127.010618,10.9531543 L117.016864,10.9531543 L117.016864,8.83447845 L126.410993,8.83447845 L126.410993,5.52654591 L117.056839,5.52654591 L117.056839,3.40787008 L127.050593,3.40787008 L127.050593,0.099937539 L114.218613,0.099937539 L114.218613,14.2610868 Z M139.772642,5.52654591 L132.237352,5.52654591 C131.847595,5.52654591 131.657714,5.17676452 131.657714,4.52717052 C131.657714,3.87757651 131.847595,3.45783885 132.237352,3.45783885 L142.590881,3.45783885 L142.590881,0.14978576 L132.237352,0.14978576 C131.253726,0.141010679 130.330905,0.624928819 129.778888,1.43910056 C129.137882,2.33923733 128.804873,3.42239493 128.829482,4.52717052 C128.801925,5.60145447 129.128516,6.65497451 129.758901,7.52529669 C130.313113,8.35238757 131.241754,8.85040902 132.237352,8.85446596 L139.772642,8.85446596 C140.162399,8.85446596 140.35228,9.20424735 140.35228,9.91380387 C140.35228,10.6233604 140.162399,10.9731418 139.772642,10.9731418 L129.409119,10.9731418 L129.409119,14.2810743 L139.772642,14.2810743 C140.766359,14.2792587 141.694612,13.7851884 142.251093,12.9618988 C143.462696,11.110438 143.462696,8.71716975 142.251093,6.86570893 C141.69916,6.0348141 140.770127,5.53283663 139.772642,5.52654591 Z M158.061212,6.84572142 C157.504731,6.02243183 156.576478,5.5283615 155.582761,5.52654591 L148.037477,5.52654591 C147.64772,5.52654591 147.457839,5.17676452 147.457839,4.52717052 C147.457839,3.87757651 147.64772,3.45783885 148.037477,3.45783885 L158.391006,3.45783885 L158.391006,0.149859106 L148.037477,0.149859106 C147.057381,0.144360001 146.139054,0.627887255 145.589007,1.43910056 C144.948001,2.33923733 144.614991,3.42239493 144.6396,4.52717052 C144.612044,5.60145447 144.938635,6.65497451 145.569019,7.52529669 C146.121249,8.3494709 147.045425,8.84710367 148.037477,8.85446596 L155.572767,8.85446596 C155.962523,8.85446596 156.162399,9.20424735 156.162399,9.91380387 C156.162399,10.6233604 155.962523,10.9731418 155.572767,10.9731418 L145.219238,10.9731418 L145.219238,14.2810743 L155.582761,14.2810743 C156.576478,14.2792587 157.504731,13.7851884 158.061212,12.9618988 C159.272815,11.110438 159.272815,8.71716975 158.061212,6.86570893 L158.061212,6.84572142 Z M59.7026858,7.07557776 C60.5572714,6.28786955 61.0123122,5.15760695 60.9419113,3.99750156 C60.9720091,3.03253774 60.6762952,2.08554935 60.102436,1.30918176 C59.5135272,0.515713834 58.5714653,0.0633745807 57.58401,0.099937539 L46.1511555,0.099937539 L46.1511555,14.2610868 L57.7938788,14.2610868 C58.7813341,14.2976498 59.7233961,13.8453105 60.3123048,13.0518426 C60.9033291,12.2789065 61.2103397,11.3261149 61.1817614,10.353529 C61.273801,9.0812361 60.7175314,7.84842249 59.7026858,7.07557776 L59.7026858,7.07557776 Z M48.9594004,3.40787008 L57.58401,3.40787008 C57.9937539,3.40787008 58.193629,3.76764522 58.193629,4.4871955 C58.193629,5.20674578 57.9937539,5.56652092 57.58401,5.56652092 L48.9594004,5.56652092 L48.9594004,3.40787008 Z M57.8038726,10.9531543 L48.9594004,10.9531543 L48.9594004,8.83447845 L57.8038726,8.83447845 C58.2036227,8.83447845 58.4134916,9.18425984 58.4134916,9.89381636 C58.4134916,10.6033729 58.2036227,10.9531543 57.8038726,10.9531543 Z M41.9537789,0.0499687695 L37.4665834,0.0499687695 L42.153654,15.9900062 L44.062461,15.9900062 L41.9537789,0.0499687695 Z M33.2792005,6.74578389 L39.0555903,16 L41.4640849,16 L36.3972517,2.00874453 L33.2792005,6.74578389 Z" id="fox-business" fill="#003366"></path>
                        <polygon id="divider" fill="#C20017" points="0 15 0 16 38 16 37.4285666 15"></polygon>
                    </g>
                </g>
            </g>
        </g>
    </g>
</svg>